<?xml version="1.0" encoding="UTF-8"?>
<!DOCTYPE svg PUBLIC "-//W3C//DTD SVG 1.1//EN" "http://www.w3.org/Graphics/SVG/1.1/DTD/svg11.dtd">
<svg xmlns="http://www.w3.org/2000/svg" version="1.1" width="525px" height="200px" style="shape-rendering:geometricPrecision; text-rendering:geometricPrecision; image-rendering:optimizeQuality; fill-rule:evenodd; clip-rule:evenodd" xmlns:xlink="http://www.w3.org/1999/xlink">
<g><path style="opacity:0.815" fill="#fefffe" d="M 524.5,101.5 C 524.5,102.833 524.5,104.167 524.5,105.5C 509.55,103.291 494.884,104.458 480.5,109C 482.275,110.439 484.275,111.439 486.5,112C 493.248,113.187 499.915,114.687 506.5,116.5C 512.433,114.85 518.433,113.517 524.5,112.5C 524.5,113.833 524.5,115.167 524.5,116.5C 518.504,117.499 512.504,118.499 506.5,119.5C 494.002,118.719 482.669,114.886 472.5,108C 464.945,105.306 457.445,102.472 450,99.5C 441,103.167 432,106.833 423,110.5C 405.754,99.8758 387.754,90.5425 369,82.5C 361.167,84.6667 353.333,86.8333 345.5,89C 341.467,93.3679 337.134,97.3679 332.5,101C 320.398,107.052 308.064,112.552 295.5,117.5C 279.847,114.269 264.18,111.103 248.5,108C 242.477,105.904 236.644,103.404 231,100.5C 224.79,109.622 218.123,118.289 211,126.5C 209.739,126.241 208.739,125.574 208,124.5C 200.333,113.167 192.667,101.833 185,90.5C 183.601,91.2266 182.101,91.7266 180.5,92C 173.331,100.999 165.665,109.499 157.5,117.5C 150.773,113.05 143.94,108.717 137,104.5C 129.753,108.682 121.92,110.848 113.5,111C 110.399,112.966 107.232,114.8 104,116.5C 100.544,113.619 96.7111,112.952 92.5,114.5C 61.8633,107.897 30.8633,105.23 -0.5,106.5C -0.5,105.167 -0.5,103.833 -0.5,102.5C 17.1006,102.115 34.6006,102.781 52,104.5C 60.5917,101.684 69.2584,99.0172 78,96.5C 85.6032,100.716 93.1032,105.05 100.5,109.5C 104.554,108.897 108.554,108.064 112.5,107C 118.431,102.785 124.598,98.9512 131,95.5C 133.591,96.4335 135.924,97.7669 138,99.5C 144.346,97.0773 150.513,94.244 156.5,91C 163.81,89.8362 171.144,88.8362 178.5,88C 180.017,86.3149 181.684,84.8149 183.5,83.5C 184.646,84.1449 185.646,84.9783 186.5,86C 192.83,85.934 199.163,85.934 205.5,86C 213.518,89.1158 221.351,92.6158 229,96.5C 238.939,83.7966 250.439,72.7966 263.5,63.5C 282.271,68.9204 299.937,76.7538 316.5,87C 325.857,86.9983 335.19,86.3316 344.5,85C 348.5,81 352.5,77 356.5,73C 369.358,68.6583 382.358,64.825 395.5,61.5C 423.644,72.9013 449.977,87.4013 474.5,105C 484.301,103.642 494.134,102.142 504,100.5C 510.814,101.254 517.647,101.588 524.5,101.5 Z M 454.5,96.5 C 452.94,96.4809 451.44,96.1476 450,95.5C 440.983,99.1711 431.983,102.838 423,106.5C 406.675,95.9187 389.509,86.752 371.5,79C 365.12,79.6757 358.786,80.8424 352.5,82.5C 354.294,80.2034 356.294,78.0367 358.5,76C 370.886,72.3205 383.219,68.4872 395.5,64.5C 416.315,73.4014 435.982,84.068 454.5,96.5 Z M 262.5,67.5 C 281.988,73.1595 300.488,81.1595 318,91.5C 325.164,90.5629 332.331,90.0629 339.5,90C 337.167,92.3333 334.833,94.6667 332.5,97C 320.281,103.194 307.781,108.694 295,113.5C 279.167,110.333 263.333,107.167 247.5,104C 242.683,102.09 238.016,99.9237 233.5,97.5C 234.467,95.3703 235.634,93.3703 237,91.5C 245.698,83.6335 254.198,75.6335 262.5,67.5 Z M 200.5,88.5 C 209.491,91.3863 218.158,95.053 226.5,99.5C 221.528,106.972 216.361,114.305 211,121.5C 203.956,111.246 196.79,101.079 189.5,91C 193.28,90.082 196.946,89.2487 200.5,88.5 Z M 167.5,92.5 C 169.857,92.3367 172.19,92.5034 174.5,93C 169.041,100.127 163.208,106.961 157,113.5C 152.001,109.994 147.167,106.327 142.5,102.5C 150.182,97.1454 158.516,93.8121 167.5,92.5 Z M 122.5,105.5 C 125.262,103.275 128.262,101.275 131.5,99.5C 132.5,99.8333 133.167,100.5 133.5,101.5C 130.339,104.248 126.673,105.581 122.5,105.5 Z M 76.5,100.5 C 82.4352,103.136 88.1018,106.302 93.5,110C 83.0768,109.096 72.7435,107.43 62.5,105C 67.3729,103.763 72.0396,102.263 76.5,100.5 Z"/></g>
</svg>
