<?xml version="1.0" encoding="UTF-8"?>
<!DOCTYPE svg PUBLIC "-//W3C//DTD SVG 1.1//EN" "http://www.w3.org/Graphics/SVG/1.1/DTD/svg11.dtd">
<svg xmlns="http://www.w3.org/2000/svg" version="1.1" width="520px" height="199px" style="shape-rendering:geometricPrecision; text-rendering:geometricPrecision; image-rendering:optimizeQuality; fill-rule:evenodd; clip-rule:evenodd" xmlns:xlink="http://www.w3.org/1999/xlink">
<g><path style="opacity:0.771" fill="#fffefe" d="M 519.5,98.5 C 519.5,99.8333 519.5,101.167 519.5,102.5C 515.5,103.5 515.5,104.5 519.5,105.5C 519.5,106.833 519.5,108.167 519.5,109.5C 517.321,108.941 515.154,108.274 513,107.5C 510.188,110.312 507.355,113.145 504.5,116C 501.119,118.245 497.452,118.912 493.5,118C 488.222,113.549 482.556,109.716 476.5,106.5C 470.147,110.34 464.48,115.173 459.5,121C 455.667,123.753 451.667,124.086 447.5,122C 443.061,117.368 437.894,113.868 432,111.5C 430.5,112 429,112.5 427.5,113C 423.167,117.333 418.833,121.667 414.5,126C 411.199,128.374 407.533,129.04 403.5,128C 399.553,125.72 395.887,123.053 392.5,120C 388.048,117.778 384.048,118.444 380.5,122C 376.534,126.967 372.201,131.634 367.5,136C 365.246,137.15 362.913,137.484 360.5,137C 354.908,133.07 349.075,129.57 343,126.5C 341.184,127.329 339.351,128.163 337.5,129C 332.934,133.476 328.601,138.143 324.5,143C 319.282,146.359 314.282,146.026 309.5,142C 305.515,136.352 301.182,131.019 296.5,126C 294.801,125.042 292.967,124.542 291,124.5C 285.942,126.173 280.776,126.673 275.5,126C 270.209,122.26 266.209,117.427 263.5,111.5C 255.822,109.162 248.489,105.995 241.5,102C 238.313,101.111 235.147,100.278 232,99.5C 224.385,101.052 217.218,103.886 210.5,108C 203.167,111.333 195.833,111.333 188.5,108C 181.814,103.905 174.647,101.072 167,99.5C 157.351,102.574 147.851,106.074 138.5,110C 135.5,110.667 132.5,110.667 129.5,110C 121.828,106.83 114.162,103.664 106.5,100.5C 103.05,102.774 99.7172,105.274 96.5,108C 91.9278,109.076 87.7611,108.243 84,105.5C 77.5722,109.979 70.5722,111.313 63,109.5C 58.4294,112.629 53.5961,113.129 48.5,111C 44.7974,107.633 41.464,103.966 38.5,100C 26.7037,100.063 17.7037,105.063 11.5,115C 8.24111,116.728 4.90778,116.894 1.5,115.5C 0.824341,116.602 0.157674,117.602 -0.5,118.5C -0.5,106.167 -0.5,93.8333 -0.5,81.5C 0.301916,82.9516 0.801916,84.6183 1,86.5C 1.49958,93.1583 1.66625,99.825 1.5,106.5C 6.80533,106.677 11.8053,105.51 16.5,103C 19.4392,97.0576 23.9392,92.8909 30,90.5C 40.3344,95.5814 50.8344,100.581 61.5,105.5C 68.0531,97.8884 75.7197,96.5551 84.5,101.5C 90.6912,97.9362 97.3579,96.1029 104.5,96C 107.833,91.3333 111.833,87.3333 116.5,84C 118.833,83.3333 121.167,83.3333 123.5,84C 127.5,86.3333 131.5,88.6667 135.5,91C 138.783,91.7429 141.783,91.0762 144.5,89C 149.125,82.0411 154.792,76.0411 161.5,71C 163.833,70.3333 166.167,70.3333 168.5,71C 172.5,73.3333 176.5,75.6667 180.5,78C 182.167,78.6667 183.833,78.6667 185.5,78C 191.876,73.2914 197.209,67.6247 201.5,61C 205.188,60.5874 208.354,61.7541 211,64.5C 216.551,73.7702 222.718,82.6035 229.5,91C 231.366,91.9847 233.366,92.4847 235.5,92.5C 240.401,90.9289 245.401,90.4289 250.5,91C 256.239,94.7422 260.573,99.7422 263.5,106C 264.667,106.167 265.833,106.333 267,106.5C 275.304,103.768 283.471,100.601 291.5,97C 295.5,96.3333 299.5,96.3333 303.5,97C 309.736,99.1175 315.736,101.784 321.5,105C 327.167,107 332.833,107 338.5,105C 344.5,102.333 350.5,99.6667 356.5,97C 360.5,96.3333 364.5,96.3333 368.5,97C 374.736,99.1175 380.736,101.784 386.5,105C 393.278,107.142 399.945,106.809 406.5,104C 413.066,99.7007 420.232,97.2007 428,96.5C 435.78,97.1353 442.947,99.6353 449.5,104C 456.055,106.809 462.722,107.142 469.5,105C 475.264,101.784 481.264,99.1175 487.5,97C 496.344,95.7522 504.51,97.5855 512,102.5C 514.459,101.022 516.959,99.6882 519.5,98.5 Z M 202.5,64.5 C 205.854,65.261 208.687,66.9277 211,69.5C 215.667,76.8333 220.333,84.1667 225,91.5C 226.558,93.3589 228.391,94.8589 230.5,96C 223.407,97.5446 216.74,100.211 210.5,104C 205.363,106.247 200.03,106.914 194.5,106C 188.264,103.883 182.264,101.216 176.5,98C 171.254,96.4941 165.921,96.1608 160.5,97C 154.5,99.6667 148.5,102.333 142.5,105C 136.848,106.936 131.182,106.936 125.5,105C 119.736,101.784 113.736,99.1175 107.5,97C 110.277,91.876 114.444,88.7093 120,87.5C 121.167,87.6667 122.333,87.8333 123.5,88C 127.241,90.7323 131.241,93.0657 135.5,95C 138.783,95.7429 141.783,95.0762 144.5,93C 149.857,86.6452 155.523,80.6452 161.5,75C 163.833,74.3333 166.167,74.3333 168.5,75C 171.672,76.7519 174.672,78.7519 177.5,81C 184.284,83.3719 189.784,81.5385 194,75.5C 196.842,71.8033 199.675,68.1366 202.5,64.5 Z M 24.5,98.5 C 26.9128,94.3147 30.2461,93.4813 34.5,96C 31.0712,96.5334 27.7379,97.3668 24.5,98.5 Z M 259.5,105.5 C 252.305,103.239 245.305,100.406 238.5,97C 248.363,92.5945 255.363,95.4278 259.5,105.5 Z M 99.5,99.5 C 100.239,99.369 100.906,99.5357 101.5,100C 98.0813,104.143 93.748,105.476 88.5,104C 91.9793,101.791 95.646,100.291 99.5,99.5 Z M 362.5,99.5 C 364.746,100.21 367.08,100.71 369.5,101C 376.394,104.281 383.394,107.281 390.5,110C 393.833,110.667 397.167,110.667 400.5,110C 406.736,107.883 412.736,105.216 418.5,102C 424.833,100 431.167,100 437.5,102C 445.721,107.407 454.721,110.407 464.5,111C 461.413,115.274 457.413,118.107 452.5,119.5C 447.547,117.732 443.214,114.899 439.5,111C 437.29,109.261 434.79,108.094 432,107.5C 425.033,110.127 419.533,114.627 415.5,121C 411.283,125.531 406.616,126.198 401.5,123C 397.595,118.882 392.928,116.049 387.5,114.5C 385.39,115.054 383.39,115.888 381.5,117C 376.934,121.476 372.601,126.143 368.5,131C 366.61,132.112 364.61,132.946 362.5,133.5C 357.039,130.601 351.706,127.434 346.5,124C 344.167,123.333 341.833,123.333 339.5,124C 334.167,128 329.5,132.667 325.5,138C 319.988,142.801 314.655,142.635 309.5,137.5C 306.105,131.882 302.105,126.715 297.5,122C 295.466,120.994 293.3,120.494 291,120.5C 286.24,121.868 281.407,122.368 276.5,122C 272.116,119.283 268.782,115.616 266.5,111C 274.719,108.225 282.719,104.891 290.5,101C 295.921,100.161 301.254,100.494 306.5,102C 311.62,104.06 316.62,106.393 321.5,109C 325.761,110.363 330.095,110.696 334.5,110C 343.842,106.147 353.176,102.647 362.5,99.5 Z M 487.5,100.5 C 495.64,99.2831 502.973,101.116 509.5,106C 507.167,108.333 504.833,110.667 502.5,113C 499.634,114.457 496.634,114.79 493.5,114C 489.452,110.284 485.118,106.95 480.5,104C 482.858,102.724 485.192,101.558 487.5,100.5 Z M 45.5,102.5 C 49.8562,103.511 53.8562,105.344 57.5,108C 52.1271,109.147 48.1271,107.313 45.5,102.5 Z M 70.5,102.5 C 73.7216,102.108 76.7216,102.608 79.5,104C 75.0419,106.141 70.3752,106.807 65.5,106C 67.2331,104.811 68.8998,103.644 70.5,102.5 Z M 11.5,109.5 C 8.41664,112.917 4.74997,113.417 0.5,111C 4.17038,110.452 7.83705,109.952 11.5,109.5 Z"/></g>
</svg>
